#!OML:ASF E:\inclinewalkrobotboard\Project 1\Capture day 1\Session 1\subject1.ASF
:FULLY-SPECIFIED
:DEGREES
300
root 6.90904 16.3681 -10.4339 -171.674 -35.5686 -181.603
lowerback -5.99942 7.26005 -4.94195
upperback 0.513295 10.0454 -0.844406
thorax 3.17338 4.90769 2.65068
lowerneck 0.666778 15.6968 6.28552
upperneck 5.78012 21.3077 -7.77207
head 3.47026 10.5482 -2.73882
rclavicle 7.72806e-014 -4.94477e-015
rhumerus -52.0089 -35.0237 -61.6498
rradius 28.7061
rwrist 15.2546
rhand -23.4552 -43.3851
rfingers 7.12502
rthumb 3.00346 -73.3437
lclavicle 7.72806e-014 -4.94477e-015
lhumerus -30.9407 -1.14967 77.4221
lradius 18.0074
lwrist -25.111
lhand -34.7606 -20.5194
lfingers 7.12502
lthumb -7.91368 9.31249
rfemur -17.7445 3.42845 10.3064
rtibia 9.53572
rfoot -4.86014 -16.4169
rtoes -21.365
lfemur -6.4022 -9.52043 -23.9676
ltibia 12.873
lfoot -0.813464 -20.1573
ltoes -25.7856
301
root 6.90634 16.3677 -10.4123 -171.837 -35.781 -181.326
lowerback -6.13845 7.33843 -4.71638
upperback 0.46207 10.1392 -0.785919
thorax 3.21803 4.95778 2.6133
lowerneck 1.01135 15.7132 6.31825
upperneck 5.64337 21.3415 -7.93645
head 3.39091 10.5721 -2.82862
rclavicle -1.20044e-013 -1.46604e-014
rhumerus -51.7271 -34.9154 -61.8494
rradius 28.6621
rwrist 15.1057
rhand -23.9898 -43.2189
rfingers 7.12502
rthumb 2.48721 -73.1841
lclavicle -1.20044e-013 -1.46604e-014
lhumerus -30.638 -1.06013 78.3416
lradius 17.9781
lwrist -25.2415
lhand -34.9036 -20.2159
lfingers 7.12502
lthumb -8.05172 9.61071
rfemur -17.8498 3.33557 10.5115
rtibia 9.74376
rfoot -4.93369 -16.5028
rtoes -21.6874
lfemur -6.5313 -9.59594 -23.7435
ltibia 12.9791
lfoot -0.705695 -20.2124
ltoes -25.8649
302
root 6.90556 16.3657 -10.4027 -171.87 -36.0736 -181.391
lowerback -6.18495 7.37808 -4.76136
upperback 0.381329 10.196 -0.913412
thorax 3.17138 4.98711 2.51169
lowerneck 1.17059 15.6922 6.70655
upperneck 5.77221 21.3254 -7.95048
head 3.45842 10.5733 -2.89747
rclavicle 3.2551e-014 -2.43511e-014
rhumerus -51.5766 -34.7673 -62.3345
rradius 28.6496
rwrist 14.9105
rhand -23.408 -43.0043
rfingers 7.12502
rthumb 3.04909 -72.9622
lclavicle 3.2551e-014 -2.43511e-014
lhumerus -30.4542 -1.13268 78.9316
lradius 17.9621
lwrist -25.1518
lhand -34.8229 -21.3585
lfingers 7.12502
lthumb -7.97387 8.47105
rfemur -17.6597 3.2414 10.4278
rtibia 9.62775
rfoot -4.8705 -16.7405
rtoes -21.3337
lfemur -6.49383 -9.60151 -23.812
ltibia 12.9857
lfoot -0.496157 -20.4113
ltoes -25.9271
303
root 6.89908 16.3627 -10.3879 -171.75 -36.2551 -181.717
lowerback -6.2524 7.39839 -4.9135
upperback 0.352169 10.2395 -1.13456
thorax 3.19004 5.00438 2.37881
lowerneck 1.26724 15.7749 6.71701
upperneck 5.82346 21.4195 -7.62226
head 3.42151 10.6296 -2.79558
rclavicle 4.60683e-014 -2.62396e-014
rhumerus -51.235 -34.7167 -62.9723
rradius 28.4815
rwrist 14.3915
rhand -23.6566 -42.5222
rfingers 7.12502
rthumb 2.80902 -72.4835
lclavicle 4.60683e-014 -2.62396e-014
lhumerus -30.2858 -0.787321 79.1972
lradius 17.8917
lwrist -25.3779
lhand -34.3168 -23.9073
lfingers 7.12502
lthumb -7.48533 5.94026
rfemur -17.5599 2.7394 10.1028
rtibia 9.60862
rfoot -4.636 -16.5396
rtoes -19.3787
lfemur -6.4278 -9.58481 -24.2183
ltibia 12.9522
lfoot -0.349996 -20.5543
ltoes -26.0029
304
root 6.89636 16.3659 -10.3757 -171.72 -36.4909 -182.18
lowerback -6.27151 7.39058 -5.35909
upperback 0.504666 10.269 -1.1682
thorax 3.28734 5.00415 2.59433
lowerneck 1.24867 15.869 6.23877
upperneck 5.81348 21.52 -7.27539
head 3.31848 10.6765 -2.61363
rclavicle 4.0726e-014 -1.11319e-014
rhumerus -50.8289 -34.6282 -63.3974
rradius 28.5052
rwrist 13.8041
rhand -24.2919 -42.3194
rfingers 7.12502
rthumb 2.1954 -72.2878
lclavicle 4.0726e-014 -1.11319e-014
lhumerus -29.9794 -0.424431 79.7849
lradius 17.8317
lwrist -25.5493
lhand -33.8056 -25.0624
lfingers 7.12502
lthumb -6.99195 4.80214
rfemur -17.1873 2.46459 9.62769
rtibia 9.5843
rfoot -4.83833 -16.5063
rtoes -21.7734
lfemur -6.11422 -9.49649 -24.7238
ltibia 12.8164
lfoot -0.0233346 -20.7735
ltoes -25.9621
